<?xml version="1.0" encoding="UTF-8" standalone="no"?>
<!-- Created with Inkscape (http://www.inkscape.org/) -->

<svg
   width="200"
   height="200"
   viewBox="0 0 200 200"
   version="1.1"
   id="svg1"
   xml:space="preserve"
   inkscape:version="1.3.2 (091e20e, 2023-11-25, custom)"
   sodipodi:docname="avatar.svg"
   xmlns:inkscape="http://www.inkscape.org/namespaces/inkscape"
   xmlns:sodipodi="http://sodipodi.sourceforge.net/DTD/sodipodi-0.dtd"
   xmlns="http://www.w3.org/2000/svg"
   xmlns:svg="http://www.w3.org/2000/svg"><sodipodi:namedview
     id="namedview1"
     pagecolor="#505050"
     bordercolor="#ffffff"
     borderopacity="1"
     inkscape:showpageshadow="0"
     inkscape:pageopacity="0"
     inkscape:pagecheckerboard="1"
     inkscape:deskcolor="#505050"
     inkscape:document-units="px"
     inkscape:zoom="3.3823274"
     inkscape:cx="67.704858"
     inkscape:cy="99.192052"
     inkscape:window-width="1920"
     inkscape:window-height="1057"
     inkscape:window-x="1192"
     inkscape:window-y="425"
     inkscape:window-maximized="1"
     inkscape:current-layer="layer1" /><defs
     id="defs1"><marker
       style="overflow:visible"
       id="ConcaveTriangle"
       refX="0"
       refY="0"
       orient="auto-start-reverse"
       inkscape:stockid="Concave triangle arrow"
       markerWidth="0.5"
       markerHeight="0.5"
       viewBox="0 0 1 1"
       inkscape:isstock="true"
       inkscape:collect="always"
       preserveAspectRatio="xMidYMid"><path
         transform="scale(0.7)"
         d="M -2,-4 9,0 -2,4 c 2,-2.33 2,-5.66 0,-8 z"
         style="fill:context-stroke;fill-rule:evenodd;stroke:none"
         id="path7" /></marker><marker
       style="overflow:visible"
       id="ConcaveTriangle-0"
       refX="0"
       refY="0"
       orient="auto-start-reverse"
       inkscape:stockid="Concave triangle arrow"
       markerWidth="0.5"
       markerHeight="0.5"
       viewBox="0 0 1 1"
       inkscape:isstock="true"
       inkscape:collect="always"
       preserveAspectRatio="xMidYMid"><path
         transform="scale(0.7)"
         d="M -2,-4 9,0 -2,4 c 2,-2.33 2,-5.66 0,-8 z"
         style="fill:context-stroke;fill-rule:evenodd;stroke:none"
         id="path7-0" /></marker></defs><g
     inkscape:label="Layer 1"
     inkscape:groupmode="layer"
     id="layer1"><g
       fill="currentColor"
       id="g1"
       transform="matrix(5.3571429,0,0,5.3571429,82.578124,75.636867)"
       style="fill:#c93b2c;fill-opacity:1"><path
         d="M 16,11 V 9 H 14 V 7.002 A 2,2 0 0 0 12,5 C 10.898,5 10,5.898 10,7.002 V 9 H 8 v 2 H 7 v 8 h 10 v -8 z m -2,0 H 10 V 9 h 4 z M 8,9 V 7.002 A 4.004,4.004 0 0 1 12,3 4,4 0 0 1 16,7.002 V 9 h 0.994 A 2.01,2.01 0 0 1 19,11.009 v 7.982 C 19,20.101 18.103,21 16.994,21 H 7.006 A 2.01,2.01 0 0 1 5,18.991 V 11.01 C 5,9.899 5.897,9 7.006,9 Z m 0,0 h 2 v 2 H 8 Z m 6,0 h 2 v 2 h -2 z"
         id="path1"
         style="fill:#c93b2c;fill-opacity:1" /><circle
         cx="12"
         cy="15"
         r="2"
         id="circle1"
         style="fill:#c93b2c;fill-opacity:1" /></g><g
       fill="currentColor"
       id="g2"
       transform="matrix(5.3571429,0,0,5.3571429,-9.3469731,0.62873158)"><path
         d="M 5,11.009 C 5,9.899 5.897,9 7.006,9 h 9.988 A 2.01,2.01 0 0 1 19,11.009 v 7.982 C 19,20.101 18.103,21 16.994,21 H 7.006 A 2.01,2.01 0 0 1 5,18.991 Z M 7,11 v 8 h 10 v -8 z"
         id="path1-9" /><circle
         cx="12"
         cy="15"
         r="2"
         id="circle1-5" /><path
         d="M 8,6.251 V 6.002 A 4.004,4.004 0 0 1 12,2 4,4 0 0 1 16,6.002 V 6.5 H 14 V 6.002 A 2,2 0 0 0 12,4 C 10.898,4 10,4.898 10,6.002 V 11 H 8 Z M 14,6.5 h 2 a 1,1 0 0 1 -2,0"
         id="path2" /></g><path
       style="fill:none;stroke:#0f17c3;stroke-width:10;stroke-linecap:butt;stroke-linejoin:miter;stroke-miterlimit:1;stroke-dasharray:none;stroke-opacity:1;marker-end:url(#ConcaveTriangle)"
       d="M 94.474036,21.298379 C 140.41946,8.8943887 158.88622,16.8776 157.31149,49.71144"
       id="path3"
       sodipodi:nodetypes="cc" /><path
       style="fill:none;stroke:#1ba300;stroke-width:10;stroke-linecap:butt;stroke-linejoin:miter;stroke-miterlimit:1;stroke-dasharray:none;stroke-opacity:1;marker-end:url(#ConcaveTriangle-0)"
       d="M 96.850872,185.28304 C 49.678048,191.57317 32.413625,181.24396 38.267865,148.89789"
       id="path3-6"
       sodipodi:nodetypes="cc" /></g></svg>
